<svg width="26" height="26" viewBox="0 0 26 26" fill="" xmlns="http://www.w3.org/2000/svg">
<path d="M20.4998 2.6875H18.9373V1.75C18.9373 1.50136 18.8385 1.2629 18.6627 1.08709C18.4869 0.911272 18.2484 0.8125 17.9998 0.8125C17.7512 0.8125 17.5127 0.911272 17.3369 1.08709C17.1611 1.2629 17.0623 1.50136 17.0623 1.75V2.6875H8.9373V1.75C8.9373 1.50136 8.83853 1.2629 8.66271 1.08709C8.4869 0.911272 8.24844 0.8125 7.9998 0.8125C7.75116 0.8125 7.5127 0.911272 7.33689 1.08709C7.16107 1.2629 7.0623 1.50136 7.0623 1.75V2.6875H5.4998C4.86648 2.6141 4.22475 2.68485 3.62263 2.89446C3.02051 3.10407 2.47358 3.44713 2.02275 3.89795C1.57193 4.34878 1.22888 4.89571 1.01926 5.49783C0.809647 6.09995 0.738896 6.74168 0.812301 7.375V20.5C0.738896 21.1333 0.809647 21.7751 1.01926 22.3772C1.22888 22.9793 1.57193 23.5262 2.02275 23.9771C2.47358 24.4279 3.02051 24.7709 3.62263 24.9805C4.22475 25.1902 4.86648 25.2609 5.4998 25.1875H20.4998C21.1331 25.2609 21.7749 25.1902 22.377 24.9805C22.9791 24.7709 23.526 24.4279 23.9769 23.9771C24.4277 23.5262 24.7707 22.9793 24.9803 22.3772C25.19 21.7751 25.2607 21.1333 25.1873 20.5V7.375C25.2607 6.74168 25.19 6.09995 24.9803 5.49783C24.7707 4.89571 24.4277 4.34878 23.9769 3.89795C23.526 3.44713 22.9791 3.10407 22.377 2.89446C21.7749 2.68485 21.1331 2.6141 20.4998 2.6875ZM5.4998 4.5625H7.0623V5.5C7.0623 5.74864 7.16107 5.9871 7.33689 6.16291C7.5127 6.33873 7.75116 6.4375 7.9998 6.4375C8.24844 6.4375 8.4869 6.33873 8.66271 6.16291C8.83853 5.9871 8.9373 5.74864 8.9373 5.5V4.5625H17.0623V5.5C17.0623 5.74864 17.1611 5.9871 17.3369 6.16291C17.5127 6.33873 17.7512 6.4375 17.9998 6.4375C18.2484 6.4375 18.4869 6.33873 18.6627 6.16291C18.8385 5.9871 18.9373 5.74864 18.9373 5.5V4.5625H20.4998C22.4711 4.5625 23.3123 5.40375 23.3123 7.375V8.3125H2.6873V7.375C2.6873 5.40375 3.52855 4.5625 5.4998 4.5625ZM20.4998 23.3125H5.4998C3.52855 23.3125 2.6873 22.4713 2.6873 20.5V10.1875H23.3123V20.5C23.3123 22.4713 22.4711 23.3125 20.4998 23.3125ZM16.7873 14C16.8744 14.0871 16.9435 14.1904 16.9907 14.3042C17.0378 14.418 17.0621 14.54 17.0621 14.6631C17.0621 14.7863 17.0378 14.9082 16.9907 15.022C16.9435 15.1358 16.8744 15.2392 16.7873 15.3263L12.6248 19.5C12.5379 19.5872 12.4347 19.6564 12.321 19.7037C12.2073 19.7509 12.0854 19.7752 11.9623 19.7752C11.8392 19.7752 11.7173 19.7509 11.6036 19.7037C11.4899 19.6564 11.3867 19.5872 11.2998 19.5L9.2123 17.4125C9.0467 17.2348 8.95655 16.9997 8.96083 16.7569C8.96512 16.514 9.06351 16.2822 9.23527 16.1105C9.40704 15.9387 9.63877 15.8403 9.88165 15.836C10.1245 15.8317 10.3596 15.9219 10.5373 16.0875L11.9586 17.5075L15.4586 14.0075C15.5451 13.9194 15.6482 13.8492 15.7619 13.8011C15.8757 13.753 15.9979 13.7279 16.1214 13.7272C16.2449 13.7265 16.3673 13.7502 16.4816 13.797C16.5959 13.8439 16.6998 13.9128 16.7873 14Z" />
</svg>
